<?xml version="1.0" encoding="UTF-8" standalone="no"?>
<!-- Created with Inkscape (http://www.inkscape.org/) -->

<svg
   width="174.04938mm"
   height="115.08438mm"
   viewBox="0 0 174.04938 115.08438"
   version="1.1"
   id="svg1"
   xml:space="preserve"
   xmlns="http://www.w3.org/2000/svg"
   xmlns:svg="http://www.w3.org/2000/svg"><defs
     id="defs1" /><g
     id="layer1"
     transform="translate(-17.97531,-86.006566)"><rect
       style="opacity:1;fill:#1a1a1a;fill-opacity:1;fill-rule:nonzero;stroke:none;stroke-width:4.56499;stroke-linecap:round;stroke-linejoin:bevel;stroke-dasharray:none;stroke-opacity:1;paint-order:normal"
       id="rect55559"
       width="169.24274"
       height="109.37762"
       x="19.354887"
       y="88.222267" /><path
       id="rect55535-5-4"
       style="fill:#ff0000;stroke-width:0.232433"
       d="m 68.383568,110.43629 7.25537,0.73741 -4.79506,82.21938 -9.03714,-0.49985 z" /><path
       id="path55537-8"
       style="fill:#ff0000;stroke-width:0.264583"
       d="m 67.058594,131.82812 c -3.943859,0.12898 -8.258316,0.32603 -11.637124,2.69217 -4.238495,3.10795 -6.63624,8.18383 -7.462486,13.27463 -0.298931,2.35799 -0.08912,4.77885 0.679688,6.96289 0.76281,2.27288 2.27551,4.21155 4.103914,5.73282 0.231478,0.37985 1.215089,0.85332 0.552975,1.18886 -0.958035,0.81804 -2.167297,1.26555 -3.14515,2.06463 -3.809538,2.7279 -7.002508,6.25502 -9.674305,10.08396 -2.922317,4.70783 -4.444996,10.1079 -7.127162,14.94137 -1.820277,3.42584 -3.951564,6.67415 -6.13996,9.87313 1.343112,0.18441 2.710276,0.007 4.063672,0.0762 1.08099,0 2.161979,0 3.242969,0 4.176135,-6.04094 6.994333,-12.85945 9.943737,-19.54468 2.059001,-4.03904 5.298624,-7.35519 8.815638,-10.15571 2.374031,-1.76325 5.2322,-2.80335 8.167249,-3.10456 2.404367,-0.35997 4.915182,-0.41393 7.255017,-0.83177 0.971587,-1.27826 0.33156,-2.96389 0.387614,-4.42504 -0.124948,-0.4766 0.165004,-1.37948 -0.280606,-1.54411 -4.188519,-0.2346 -8.660927,-0.69328 -12.130446,-3.28476 -2.094546,-1.66974 -3.155086,-4.50484 -2.632812,-7.13671 0.468393,-3.46939 2.093925,-6.88028 4.827447,-9.12062 2.609872,-1.65563 5.828163,-1.51401 8.793488,-1.59688 1.326556,-0.078 2.653607,-0.91294 2.927403,-2.28305 0.470633,-1.62293 -0.662085,-3.42992 -2.31506,-3.74916 -0.394884,-0.11604 -0.807267,-0.12873 -1.2157,-0.11358 z" /><path
       id="rect55535-5"
       style="fill:#ff0000;stroke-width:0.232433"
       d="m 141.7316,110.63387 -7.25537,0.73741 4.79506,82.21938 9.03714,-0.49985 z" /><path
       d="M 113.13255,147.02946"
       style="opacity:0.506369;fill:#ff0000;stroke-width:0.232581"
       id="path1" /><path
       id="rect55534-9"
       style="fill:#aa0000;stroke-width:0.264583"
       d="m 131.15504,116.99064 c 4.80701,2.00679 10.19957,2.11053 16.27345,0 v 5.82044 h -16.27345 z" /><path
       id="rect55535"
       style="fill:#ff0000;stroke-width:0.232433"
       d="m 68.338897,111.18407 7.255377,0.73741 -4.795061,82.21938 -9.037141,-0.49985 z" /><path
       id="rect55534"
       style="fill:#aa0000;stroke-width:0.264583"
       d="m 63.629845,116.86578 c 4.807011,2.00679 10.199576,2.11053 16.273454,0 v 5.82044 H 63.629845 Z" /><rect
       style="fill:#d40000;stroke-width:0.264583"
       id="rect55533"
       width="5.5828638"
       height="8.9088249"
       x="102.59111"
       y="111.75806" /><path
       id="rect55531"
       style="fill:#ff0000;stroke-width:0.301053"
       d="M 46.287335,119.24149 H 164.1214 v 5.70165 c -40.9372,-0.16592 -80.062929,-0.15069 -117.834065,0 z" /><path
       id="rect55532-4"
       style="fill:#800000;stroke-width:0.260576"
       d="m 42.785398,104.34823 c 44.770987,3.62547 86.129322,3.26952 125.291132,0.35095 l -1.87176,5.14735 c -39.72971,2.34554 -79.887146,3.53013 -121.781579,0 z" /><path
       id="rect55532"
       style="fill:#ff0000;stroke-width:0.264583"
       d="m 41.773527,102.96803 c 45.459535,3.68123 87.453933,3.3198 127.218033,0.35635 l -1.90055,5.22651 c -40.34073,2.38161 -81.11576,3.58442 -123.654502,0 z" /><path
       id="rect55532-1"
       style="fill:#1a1a1a;stroke-width:0.284346"
       d="m 37.160432,97.193959 c 48.855205,3.956201 93.986448,3.567781 136.720788,0.38297 l -2.04252,5.616911 c -44.70438,4.35996 -87.174829,3.85216 -132.891068,0 z" /><path
       style="fill:#6c5d53;stroke-width:0.264583"
       d="m 154.02728,197.55747 c -2.35376,0.96533 -13.72726,1.86615 -19.12428,-0.23757 -1.74892,-5.55569 17.15267,-7.48785 19.12428,0.23757 z"
       id="path55535-6" /><path
       style="fill:#6c5d53;stroke-width:0.264583"
       d="m 56.502785,197.40158 c 2.353758,0.96533 13.727258,1.86615 19.124279,-0.23757 1.748922,-5.55569 -17.15267,-7.48785 -19.124279,0.23757 z"
       id="path55535" /><path
       id="path55537"
       style="fill:#ff0000;stroke-width:0.264583"
       d="m 142.29102,132.02344 c -2.15988,0.15965 -3.75317,2.99682 -2.35525,4.79962 0.89792,1.30072 2.64778,1.58686 4.11139,1.367 2.77785,0.10779 5.88498,0.27894 8.02323,2.29472 2.22927,2.12891 3.34781,5.1442 4.00773,8.08944 0.46038,2.77781 -0.44368,5.95898 -2.89388,7.55293 -3.26701,2.41699 -7.46306,2.98266 -11.41471,3.12285 -0.96139,0.17626 -0.63643,1.28676 -0.77319,1.97694 -0.092,1.32225 -0.21148,2.59608 0.20288,3.85118 1.6541,0.75015 3.49316,0.42336 5.1987,0.7556 3.77992,0.34304 7.76683,1.09967 10.73235,3.64652 3.25363,2.59617 6.19391,5.692 8.21938,9.35026 1.7433,3.34424 2.97622,6.91628 4.6554,10.28414 1.55875,3.26713 3.34225,6.47849 5.41292,9.41856 1.57254,0.4425 3.22126,0.0194 4.82617,0.17802 0.85286,0.004 1.70573,0.008 2.55859,0.0114 -3.99722,-5.86224 -7.60998,-12.03502 -10.12729,-18.68782 -1.67022,-3.99088 -3.80163,-7.87594 -6.95424,-10.92223 -2.7172,-3.00514 -5.91504,-5.58389 -9.49854,-7.48566 2.78066,-1.92038 4.89403,-4.81388 5.68824,-8.11479 0.90091,-3.60784 0.10728,-7.41718 -1.21754,-10.81685 -1.36526,-3.21585 -3.4558,-6.23078 -6.34927,-8.24115 -2.97969,-1.88013 -6.59339,-2.26886 -9.97239,-2.38777 -0.69291,-0.0219 -1.38762,-0.0543 -2.08068,-0.043 z" /><text
       xml:space="preserve"
       style="font-size:16.9333px;fill:#ffffff;fill-opacity:1;fill-rule:nonzero;stroke-width:0.264583"
       x="105.48569"
       y="154.08258"
       id="text55556"><tspan
         id="tspan55556"
         style="font-style:normal;font-variant:normal;font-weight:normal;font-stretch:normal;font-size:16.9333px;font-family:'Dark Courier';-inkscape-font-specification:'Dark Courier';text-align:center;text-anchor:middle;fill:#ffffff;stroke-width:0.264583"
         x="105.48569"
         y="154.08258"> RÅnin </tspan><tspan
         style="font-style:normal;font-variant:normal;font-weight:normal;font-stretch:normal;font-size:16.9333px;font-family:'Dark Courier';-inkscape-font-specification:'Dark Courier';text-align:center;text-anchor:middle;fill:#ffffff;stroke-width:0.264583"
         x="105.48569"
         y="175.67256"
         id="tspan55557">Repair</tspan></text><path
       id="rect55558"
       style="opacity:1;fill:none;fill-opacity:1;fill-rule:nonzero;stroke:#000000;stroke-width:4.37935;stroke-linecap:round;stroke-linejoin:bevel;stroke-dasharray:none;stroke-opacity:1;paint-order:normal"
       d="m 20.164985,88.682823 c 10e-7,36.739477 0,73.478957 0,110.218447 56.556676,0 113.113355,0 169.670035,0 0,-36.90168 0,-73.80336 0,-110.705035 -56.55668,0 -113.113359,10e-7 -169.670035,0 0,0.162197 0,0.324392 0,0.486588 z" /></g></svg>
